<svg width="0" height="0" class="hidden">
  <symbol fill="none" xmlns="http://www.w3.org/2000/svg" viewBox="0 0 74 74" id="empty-wallet">
    <path d="M54.6983 70.1458H19.3017C11.6242 70.1458 5.39584 63.9175 5.39584 56.24V35.4891C5.39584 27.8117 11.6242 21.5833 19.3017 21.5833H54.6983C62.3758 21.5833 68.6042 27.8117 68.6042 35.4891V39.9291C68.6042 41.1933 67.5558 42.2416 66.2917 42.2416H60.0633C58.9842 42.2416 57.9975 42.6425 57.2883 43.3825L57.2575 43.4133C56.3942 44.2458 55.9933 45.3866 56.0858 46.5583C56.2708 48.5933 58.2133 50.2275 60.4333 50.2275H66.2917C67.5558 50.2275 68.6042 51.2758 68.6042 52.54V56.2091C68.6042 63.9175 62.3758 70.1458 54.6983 70.1458ZM19.3017 26.2083C14.1833 26.2083 10.0208 30.3708 10.0208 35.4891V56.24C10.0208 61.3583 14.1833 65.5208 19.3017 65.5208H54.6983C59.8167 65.5208 63.9792 61.3583 63.9792 56.24V54.8833H60.4333C55.7775 54.8833 51.8308 51.43 51.4608 46.99C51.2142 44.4616 52.1392 41.9641 53.9892 40.145C55.5925 38.5108 57.7508 37.6166 60.0633 37.6166H63.9792V35.4891C63.9792 30.3708 59.8167 26.2083 54.6983 26.2083H19.3017Z" fill="#FF9900"></path>
    <path d="M7.70834 40.5767C6.44418 40.5767 5.39584 39.5284 5.39584 38.2642V24.1735C5.39584 19.5794 8.29418 15.4167 12.58 13.7825L37.0617 4.53255C39.59 3.57671 42.3958 3.916 44.585 5.45767C46.805 6.99934 48.1 9.49684 48.1 12.1793V23.8959C48.1 25.1601 47.0517 26.2084 45.7875 26.2084C44.5233 26.2084 43.475 25.1601 43.475 23.8959V12.1793C43.475 11.0077 42.92 9.92844 41.9333 9.25011C40.9467 8.57177 39.775 8.41761 38.665 8.84927L14.1833 18.0993C11.6858 19.0551 9.99001 21.491 9.99001 24.1735V38.2642C10.0208 39.5592 8.97251 40.5767 7.70834 40.5767Z" fill="#FF9900"></path>
    <path d="M60.4349 54.884C55.779 54.884 51.8324 51.4306 51.4624 46.9906C51.2157 44.4315 52.1407 41.934 53.9907 40.1148C55.5632 38.5115 57.7215 37.6173 60.034 37.6173H66.4474C69.4999 37.7098 71.8432 40.1148 71.8432 43.0748V49.4265C71.8432 52.3865 69.4999 54.7915 66.5399 54.884H60.4349ZM66.3857 42.2423H60.0649C58.9857 42.2423 57.999 42.6431 57.2899 43.3831C56.3957 44.2465 55.964 45.4181 56.0874 46.5898C56.2724 48.6248 58.2149 50.259 60.4349 50.259H66.4782C66.879 50.259 67.249 49.889 67.249 49.4265V43.0748C67.249 42.6123 66.879 42.2731 66.3857 42.2423Z" fill="#FF9900"></path>
    <path d="M43.1667 39.3125H21.5833C20.3192 39.3125 19.2708 38.2642 19.2708 37C19.2708 35.7358 20.3192 34.6875 21.5833 34.6875H43.1667C44.4308 34.6875 45.4792 35.7358 45.4792 37C45.4792 38.2642 44.4308 39.3125 43.1667 39.3125Z" fill="#FF9900"></path>
  </symbol>
  <symbol fill="none" xmlns="http://www.w3.org/2000/svg" viewBox="0 0 74 74" id="box-search">
    <path d="M36.9981 41.0081C36.5973 41.0081 36.1965 40.9156 35.8265 40.6997L8.60053 24.9439C7.49053 24.2964 7.12047 22.878 7.76797 21.768C8.41547 20.658 9.80297 20.2879 10.9438 20.9354L36.9981 36.0131L62.8978 21.028C64.0078 20.3805 65.4262 20.7814 66.0737 21.8606C66.7212 22.9706 66.3206 24.3888 65.2415 25.0363L38.2006 40.6997C37.7998 40.8847 37.399 41.0081 36.9981 41.0081Z" fill="#2639ED"></path>
    <path d="M37 68.9433C35.7358 68.9433 34.6875 67.895 34.6875 66.6308V38.665C34.6875 37.4008 35.7358 36.3525 37 36.3525C38.2642 36.3525 39.3125 37.4008 39.3125 38.665V66.6308C39.3125 67.895 38.2642 68.9433 37 68.9433Z" fill="#2639ED"></path>
    <path d="M36.9966 70.1464C34.1908 70.1464 31.5083 69.4989 29.4733 68.3581L13.0083 59.2318C8.53744 56.7651 5.02247 50.8139 5.02247 45.6956V28.244C5.02247 23.1256 8.53744 17.2058 13.0083 14.7083L29.4733 5.58154C33.6666 3.2382 40.2649 3.2382 44.4891 5.58154L60.9541 14.7083C65.4249 17.175 68.9399 23.1256 68.9399 28.244V39.5289C68.9399 40.7931 67.8916 41.8414 66.6274 41.8414C65.3633 41.8414 64.3149 40.7931 64.3149 39.5289V28.244C64.3149 24.8523 61.6941 20.4125 58.7341 18.7783L42.2691 9.65157C39.4633 8.07907 34.5608 8.07907 31.7549 9.65157L15.2899 18.7783C12.2991 20.4433 9.70911 24.8523 9.70911 28.244V45.6956C9.70911 49.0873 12.3299 53.5276 15.2899 55.1618L31.7549 64.2881C34.4683 65.7989 39.5866 65.7989 42.2691 64.2881C43.3791 63.6714 44.7974 64.0726 45.4141 65.1826C46.0308 66.2926 45.6299 67.7106 44.5199 68.3273C42.4849 69.4989 39.8024 70.1464 36.9966 70.1464Z" fill="#2639ED"></path>
    <path d="M59.2 68.2958C52.4783 68.2958 47.0208 62.8383 47.0208 56.1167C47.0208 49.395 52.4783 43.9375 59.2 43.9375C65.9217 43.9375 71.3792 49.395 71.3792 56.1167C71.3792 62.8383 65.9217 68.2958 59.2 68.2958ZM59.2 48.5625C55.0375 48.5625 51.6458 51.9542 51.6458 56.1167C51.6458 60.2792 55.0375 63.6708 59.2 63.6708C63.3625 63.6708 66.7542 60.2792 66.7542 56.1167C66.7542 51.9542 63.3625 48.5625 59.2 48.5625Z" fill="#2639ED"></path>
    <path d="M70.9151 70.1458C70.3293 70.1458 69.7435 69.93 69.281 69.4675L66.1976 66.3842C65.3035 65.49 65.3035 64.0097 66.1976 63.1155C67.0918 62.2213 68.5718 62.2213 69.466 63.1155L72.5493 66.1988C73.4435 67.093 73.4435 68.5733 72.5493 69.4675C72.0868 69.93 71.501 70.1458 70.9151 70.1458Z" fill="#2639ED"></path>
  </symbol>
  <symbol fill="none" xmlns="http://www.w3.org/2000/svg" viewBox="0 0 74 74" id="analysis">
    <path d="M31.1734 55.9616H19.4876C18.2234 55.9616 17.1751 54.9132 17.1751 53.6491V37.8624C17.1751 34.6558 19.7959 32.0346 23.0026 32.0346H31.1734C32.4376 32.0346 33.4859 33.0829 33.4859 34.3471V53.6179C33.4859 54.9129 32.4376 55.9616 31.1734 55.9616ZM21.8001 51.3366H28.8609V36.6907H23.0026C22.3551 36.6907 21.8001 37.2146 21.8001 37.8929V51.3366Z" fill="#00DA71"></path>
    <path d="M42.8263 55.9616H31.1404C29.8763 55.9616 28.828 54.9133 28.828 53.6491V23.8638C28.828 20.6572 31.4488 18.0363 34.6554 18.0363H39.3421C42.5488 18.0363 45.1696 20.6572 45.1696 23.8638V53.6491C45.1388 54.9133 44.1213 55.9616 42.8263 55.9616ZM33.4838 51.3366H40.5446V23.8638C40.5446 23.2163 40.0204 22.6613 39.3421 22.6613H34.6554C34.0079 22.6613 33.4529 23.1855 33.4529 23.8638V51.3366H33.4838Z" fill="#00DA71"></path>
    <path d="M54.5152 55.9616H42.8293C41.5652 55.9616 40.5168 54.9133 40.5168 53.6491V39.6196C40.5168 38.3555 41.5652 37.3071 42.8293 37.3071H51.0002C54.2068 37.3071 56.8277 39.928 56.8277 43.1346V53.6491C56.8277 54.9133 55.8102 55.9616 54.5152 55.9616ZM45.1418 51.3366H52.2027V43.1346C52.2027 42.4871 51.6785 41.9321 51.0002 41.9321H45.1418V51.3366Z" fill="#00DA71"></path>
    <path d="M46.25 70.1459H27.75C11.0075 70.1459 3.85416 62.9925 3.85416 46.25V27.75C3.85416 11.0075 11.0075 3.85419 27.75 3.85419H46.25C62.9925 3.85419 70.1458 11.0075 70.1458 27.75V46.25C70.1458 62.9925 62.9925 70.1459 46.25 70.1459ZM27.75 8.47919C13.5358 8.47919 8.47916 13.5359 8.47916 27.75V46.25C8.47916 60.4642 13.5358 65.5209 27.75 65.5209H46.25C60.4642 65.5209 65.5208 60.4642 65.5208 46.25V27.75C65.5208 13.5359 60.4642 8.47919 46.25 8.47919H27.75Z" fill="#00DA71"></path>
  </symbol>
  <symbol fill="none" xmlns="http://www.w3.org/2000/svg" viewBox="0 0 74 74" id="code-1">
    <path d="M27.7529 54.7289C27.4137 54.7289 27.0437 54.6364 26.7354 54.4822C24.3612 53.2797 22.3262 51.4914 20.8462 49.2714C19.6129 47.4214 19.6129 45.0472 20.8462 43.1972C22.3262 40.9772 24.3612 39.1889 26.7354 38.0172C27.8762 37.4314 29.2637 37.9247 29.8496 39.0655C30.4354 40.2064 29.9729 41.5939 28.8012 42.1797C27.1362 43.0122 25.7179 44.2764 24.7004 45.818C24.5154 46.0955 24.5154 46.4655 24.7004 46.7739C25.7179 48.3155 27.1362 49.5797 28.8012 50.4122C29.9421 50.998 30.4046 52.3855 29.8496 53.5264C29.4179 54.2664 28.5854 54.7289 27.7529 54.7289Z" fill="#FF007A"></path>
    <path d="M46.895 54.7288C46.0317 54.7288 45.23 54.2663 44.8292 53.4647C44.2434 52.3238 44.7059 50.9363 45.8775 50.3505C47.5425 49.518 48.9609 48.2538 49.9784 46.7122C50.1634 46.4347 50.1634 46.0647 49.9784 45.7563C48.9609 44.2147 47.5425 42.9505 45.8775 42.118C44.7367 41.5322 44.2742 40.1447 44.8292 39.0038C45.415 37.863 46.8025 37.4005 47.9434 37.9555C50.3175 39.158 52.3525 40.9463 53.8325 43.1663C55.0659 45.0163 55.0659 47.3905 53.8325 49.2405C52.3525 51.4605 50.3175 53.2488 47.9434 54.4205C47.5734 54.6363 47.2342 54.7288 46.895 54.7288Z" fill="#FF007A"></path>
    <path d="M46.25 70.1459H27.75C11.0075 70.1459 3.85417 62.9925 3.85417 46.25V27.75C3.85417 11.0075 11.0075 3.85419 27.75 3.85419H46.25C62.9925 3.85419 70.1458 11.0075 70.1458 27.75V46.25C70.1458 62.9925 62.9925 70.1459 46.25 70.1459ZM27.75 8.47919C13.5358 8.47919 8.47917 13.5359 8.47917 27.75V46.25C8.47917 60.4642 13.5358 65.5209 27.75 65.5209H46.25C60.4642 65.5209 65.5208 60.4642 65.5208 46.25V27.75C65.5208 13.5359 60.4642 8.47919 46.25 8.47919H27.75Z" fill="#FF007A"></path>
    <path d="M6.87728 27.01C5.61312 27.01 4.56478 25.9617 4.56478 24.6975C4.56478 23.4333 5.58228 22.385 6.87728 22.385L66.139 22.3542C67.4032 22.3542 68.4515 23.4025 68.4515 24.6667C68.4515 25.9308 67.434 26.9792 66.139 26.9792L6.87728 27.01Z" fill="#FF007A"></path>
  </symbol>
   <symbol fill="none" xmlns="http://www.w3.org/2000/svg" viewBox="0 0 36 36" id="facebook">
    <path d="M18 36C27.9411 36 36 27.9411 36 18C36 8.05888 27.9411 0 18 0C8.05888 0 0 8.05888 0 18C0 27.9411 8.05888 36 18 36Z" fill="#3B5998"></path>
    <path d="M22.5252 18.7046H19.3133V30.4715H14.447V18.7046H12.1326V14.5693H14.447V11.8933C14.447 9.97961 15.3561 6.98303 19.3566 6.98303L22.9613 6.99811V11.0122H20.3459C19.9169 11.0122 19.3136 11.2265 19.3136 12.1394V14.5731H22.9503L22.5252 18.7046Z" fill="white"></path>
  </symbol>
  <symbol fill="none" xmlns="http://www.w3.org/2000/svg" viewBox="0 0 36 36" id="linkedIn">
    <path d="M18 35.9998C27.9411 35.9998 36 27.9409 36 17.9998C36 8.05863 27.9411 -0.000244141 18 -0.000244141C8.05884 -0.000244141 -3.05176e-05 8.05863 -3.05176e-05 17.9998C-3.05176e-05 27.9409 8.05884 35.9998 18 35.9998Z" fill="#007AB9"></path>
    <path d="M28.7548 19.4483V26.8693H24.4523V19.9456C24.4523 18.2071 23.8311 17.0199 22.2733 17.0199C21.0845 17.0199 20.3783 17.8192 20.0664 18.5931C19.9531 18.8697 19.9239 19.2538 19.9239 19.6417V26.8689H15.6211C15.6211 26.8689 15.6788 15.1425 15.6211 13.9287H19.9242V15.7625C19.9156 15.7769 19.9034 15.791 19.8957 15.8048H19.9242V15.7625C20.496 14.8826 21.5157 13.6248 23.8019 13.6248C26.6326 13.6248 28.7548 15.4743 28.7548 19.4483ZM11.12 7.69104C9.64813 7.69104 8.68521 8.65717 8.68521 9.92652C8.68521 11.1689 9.62022 12.163 11.0635 12.163H11.0914C12.5921 12.163 13.5252 11.1689 13.5252 9.92652C13.4966 8.65717 12.5921 7.69104 11.12 7.69104ZM8.94094 26.8693H13.2422V13.9287H8.94094V26.8693Z" fill="#F1F2F2"></path>
  </symbol>
  <symbol fill="none" xmlns="http://www.w3.org/2000/svg" viewBox="0 0 36 36" id="twitter">
    <path d="M18.0002 35.9997C27.9412 35.9997 36 27.9409 36 17.9998C36 8.0588 27.9412 0 18.0002 0C8.05917 0 0.000366211 8.0588 0.000366211 17.9998C0.000366211 27.9409 8.05917 35.9997 18.0002 35.9997Z" fill="#55ACEE"></path>
    <path d="M29.0257 12.9359C28.2543 13.278 27.4246 13.5093 26.5544 13.6126C27.4428 13.0803 28.1247 12.238 28.4465 11.2328C27.6151 11.7259 26.6939 12.0837 25.7143 12.2766C24.9295 11.4407 23.8113 10.9183 22.5731 10.9183C20.1974 10.9183 18.2706 12.8451 18.2706 15.2208C18.2706 15.558 18.3088 15.8863 18.3826 16.2014C14.8069 16.022 11.6364 14.3092 9.51424 11.7054C9.14396 12.3407 8.93155 13.0803 8.93155 13.8687C8.93155 15.361 9.69167 16.6785 10.8455 17.4498C10.1406 17.4277 9.4767 17.2342 8.89689 16.9111C8.89657 16.9294 8.89657 16.9477 8.89657 16.9657C8.89657 19.0503 10.3803 20.7891 12.3481 21.1841C11.9875 21.2829 11.6066 21.3352 11.2148 21.3352C10.9369 21.3352 10.6677 21.3086 10.4053 21.2585C10.9527 22.9674 12.5413 24.2114 14.4244 24.2464C12.9517 25.4005 11.0967 26.0882 9.08043 26.0882C8.7339 26.0882 8.39057 26.0679 8.05463 26.0278C9.95767 27.249 12.2198 27.961 14.6493 27.961C22.5631 27.961 26.891 21.4051 26.891 15.7191C26.891 15.5327 26.8868 15.3469 26.8784 15.1627C27.7198 14.5563 28.4491 13.7987 29.0257 12.9359Z" fill="#F1F2F2"></path>
  </symbol>
</svg>